#!OML:ASF E:\Style4\Style4.ASF
:FULLY-SPECIFIED
:DEGREES
2217
root -0.25476 17.1707 -1.6236 5.79626 11.9807 4.89551
lowerback 19.9009 4.3381 0.638268
upperback 12.7597 5.85289 0.00990567
thorax 2.80561 3.04872 -1.32413
lowerneck 7.57364 -4.6036 -3.19069
upperneck -5.4807 -6.19554 4.27887
head -2.84998 -3.17537 2.2448
rclavicle 8.90555e-014 -4.92986e-014
rhumerus 28.0612 8.92624 -79.2336
rradius 112.483
rwrist 26.6167
rhand 18.0156 -2.62236
rfingers 7.12502
rthumb 42.6822 -26.9797
lclavicle 8.90555e-014 -4.92986e-014
lhumerus 18.5176 -19.2173 79.489
lradius 129.328
lwrist -12.2804
lhand 11.8484 35.8929
lfingers 7.12502
lthumb 36.8773 61.989
rfemur -29.6786 -6.17827 15.1015
rtibia 50.3351
rfoot -23.8731 -17.4381
rtoes -7.54701
lfemur -30.6771 -3.12368 -23.3672
ltibia 43.9789
lfoot -17.0546 1.47935
ltoes -13.1758
2218
root -0.258818 17.186 -1.63578 5.92123 11.9818 4.87298
lowerback 19.9616 4.31662 0.684179
upperback 12.7407 5.83088 0.0641564
thorax 2.75192 3.03713 -1.2948
lowerneck 7.47425 -4.68024 -3.17846
upperneck -5.38713 -6.29887 4.2386
head -2.79632 -3.2249 2.22605
rclavicle -5.88403e-014 -1.03368e-014
rhumerus 27.7689 8.91615 -79.7995
rradius 111.523
rwrist 26.8197
rhand 18.0144 -2.79499
rfingers 7.12502
rthumb 42.6811 -27.1527
lclavicle -5.88403e-014 -1.03368e-014
lhumerus 19.225 -19.0594 79.2894
lradius 129.588
lwrist -12.3309
lhand 11.9115 35.8666
lfingers 7.12502
lthumb 36.937 61.9473
rfemur -29.7363 -6.26235 15.153
rtibia 50.08
rfoot -23.7655 -17.302
rtoes -7.30885
lfemur -30.7198 -3.15131 -23.3219
ltibia 43.7126
lfoot -16.914 1.52095
ltoes -13.0226
2219
root -0.261958 17.2065 -1.64848 6.07142 11.9588 4.82224
lowerback 20.0246 4.30927 0.784482
upperback 12.6753 5.83478 0.0813631
thorax 2.65615 3.04238 -1.34151
lowerneck 7.54439 -4.7682 -3.12361
upperneck -5.45926 -6.40889 4.27192
head -2.82992 -3.28253 2.23687
rclavicle 2.22639e-014 -1.90833e-014
rhumerus 27.2174 8.86646 -80.373
rradius 110.784
rwrist 27.1289
rhand 19.1613 -2.16866
rfingers 7.12502
rthumb 43.753 -26.143
lclavicle 2.22639e-014 -1.90833e-014
lhumerus 19.9537 -19.0127 79.0363
lradius 129.749
lwrist -12.3291
lhand 11.8735 35.9565
lfingers 7.12502
lthumb 36.9011 62.0464
rfemur -29.8016 -6.31442 15.2279
rtibia 49.7823
rfoot -23.6551 -17.1106
rtoes -6.93141
lfemur -30.7663 -3.17479 -23.2429
ltibia 43.4012
lfoot -16.8495 1.43032
ltoes -11.857
2220
root -0.263974 17.2283 -1.65852 6.25972 11.8995 4.79362
lowerback 20.0516 4.3053 0.843396
upperback 12.5887 5.83619 0.0680379
thorax 2.55414 3.04458 -1.39547
lowerneck 7.55958 -4.82802 -3.08781
upperneck -5.49119 -6.48193 4.31642
head -2.84024 -3.32147 2.24977
rclavicle -1.90833e-014 1.59028e-015
rhumerus 26.5855 8.81133 -80.8276
rradius 110.289
rwrist 27.3123
rhand 20.2654 -1.9179
rfingers 7.12502
rthumb 44.7822 -25.5027
lclavicle -1.90833e-014 1.59028e-015
lhumerus 20.6821 -18.9112 78.7252
lradius 129.882
lwrist -12.2099
lhand 11.9018 36.0879
lfingers 7.12502
lthumb 36.9278 62.171
rfemur -29.8729 -6.37043 15.2828
rtibia 49.4213
rfoot -23.4616 -17.0198
rtoes -7.08344
lfemur -30.8123 -3.2157 -23.1889
ltibia 43.0593
lfoot -16.6706 1.47448
ltoes -11.0554
2221
root -0.266216 17.2494 -1.66458 6.45181 11.7496 4.7408
lowerback 20.0417 4.29677 0.811827
upperback 12.5097 5.81674 0.0754357
thorax 2.46653 3.02965 -1.37092
lowerneck 7.46815 -4.83581 -3.1286
upperneck -5.4711 -6.49836 4.27232
head -2.81546 -3.32658 2.23843
rclavicle 2.06736e-014 6.36111e-015
rhumerus 25.8582 8.93993 -81.2136
rradius 109.885
rwrist 27.4417
rhand 20.3447 -2.1722
rfingers 7.12502
rthumb 44.8561 -25.7282
lclavicle 2.06736e-014 6.36111e-015
lhumerus 21.3609 -18.6193 78.4382
lradius 129.943
lwrist -12.0524
lhand 11.769 35.9736
lfingers 7.12502
lthumb 36.8022 62.089
rfemur -29.9295 -6.35477 15.3761
rtibia 48.9809
rfoot -23.0982 -17.0661
rtoes -7.70971
lfemur -30.8422 -3.24286 -23.0964
ltibia 42.7
lfoot -16.5281 1.70682
ltoes -11.5116
2222
root -0.269816 17.274 -1.6714 6.64878 11.6187 4.54578
lowerback 20.0547 4.28061 0.91464
upperback 12.3816 5.80788 0.114473
thorax 2.32367 3.02515 -1.39358
lowerneck 7.43003 -4.82757 -3.19681
upperneck -5.4566 -6.49437 4.26659
head -2.80164 -3.32271 2.24628
rclavicle -2.8625e-014 0
rhumerus 24.7769 9.07378 -81.7904
rradius 109.622
rwrist 27.5623
rhand 20.3454 -2.27189
rfingers 7.12502
rthumb 44.8567 -25.8277
lclavicle -2.8625e-014 0
lhumerus 22.0221 -18.4148 78.1645
lradius 129.93
lwrist -11.8407
lhand 11.5595 35.8594
lfingers 7.12502
lthumb 36.6039 62.0252
rfemur -29.9768 -6.31719 15.6392
rtibia 48.4782
rfoot -22.6831 -17.1473
rtoes -8.21958
lfemur -30.9071 -3.28897 -22.8333
ltibia 42.3137
lfoot -16.3928 1.95587
ltoes -12.2966
2223
root -0.272661 17.3029 -1.67791 6.87874 11.5246 4.39247
lowerback 20.0628 4.26946 1.01603
upperback 12.223 5.80562 0.116188
thorax 2.15408 3.02483 -1.45716
lowerneck 7.43726 -4.82091 -3.25101
upperneck -5.45776 -6.48403 4.37194
head -2.7992 -3.32045 2.29062
rclavicle -1.35174e-014 3.18055e-015
rhumerus 23.5347 9.12368 -82.3943
rradius 109.534
rwrist 27.7237
rhand 20.396 -2.27425
rfingers 7.12502
rthumb 44.9038 -25.8116
lclavicle -1.35174e-014 3.18055e-015
lhumerus 22.6805 -18.301 77.848
lradius 129.85
lwrist -11.743
lhand 11.6123 35.7311
lfingers 7.12502
lthumb 36.6539 61.8843
rfemur -30.0145 -6.30516 15.8419
rtibia 47.9347
rfoot -22.3676 -17.1425
rtoes -8.20505
lfemur -30.9783 -3.3592 -22.6269
ltibia 41.9025
lfoot -16.1379 2.20607
ltoes -13.2807
2224
root -0.273945 17.3313 -1.68269 7.15589 11.4191 4.34368
lowerback 20.014 4.25869 1.01552
upperback 12.0781 5.78786 0.0722801
thorax 2.02249 3.01341 -1.50447
lowerneck 7.40406 -4.81409 -3.27353
upperneck -5.49404 -6.47083 4.44982
head -2.80292 -3.31621 2.31972
rclavicle 1.82882e-014 -3.81667e-014
rhumerus 22.2918 9.18931 -82.8272
rradius 109.604
rwrist 27.7648
rhand 20.3093 -2.4072
rfingers 7.12502
rthumb 44.8231 -25.9761
lclavicle 1.82882e-014 -3.81667e-014
lhumerus 23.4822 -18.2074 77.3751
lradius 129.734
lwrist -11.7283
lhand 11.6203 35.7938
lfingers 7.12502
lthumb 36.6614 61.945
rfemur -30.0907 -6.34776 15.9378
rtibia 47.3785
rfoot -21.9865 -17.1788
rtoes -8.75492
lfemur -31.0473 -3.42926 -22.5317
ltibia 41.4672
lfoot -15.9586 2.33352
ltoes -13.2986
2225
root -0.276364 17.3594 -1.68796 7.41582 11.321 4.19643
lowerback 19.9706 4.23925 1.09897
upperback 11.9312 5.77227 0.0477294
thorax 1.8928 3.00661 -1.57858
lowerneck 7.36718 -4.7996 -3.25049
upperneck -5.52166 -6.45022 4.4172
head -2.80787 -3.30502 2.30347
rclavicle -3.18055e-015 2.46493e-014
rhumerus 21.0272 9.19339 -83.2152
rradius 109.767
rwrist 27.6247
rhand 20.2687 -2.48156
rfingers 7.12502
rthumb 44.7853 -26.0652
lclavicle -3.18055e-015 2.46493e-014
lhumerus 24.2937 -18.224 76.869
lradius 129.59
lwrist -11.6639
lhand 11.3785 35.9999
lfingers 7.12502
lthumb 36.4326 62.2089
rfemur -30.1568 -6.33808 16.1379
rtibia 46.8173
rfoot -21.7423 -17.0856
rtoes -8.65216
lfemur -31.1404 -3.52693 -22.3152
ltibia 41.033
lfoot -15.7862 2.50867
ltoes -13.114
2226
root -0.280344 17.3873 -1.69247 7.61856 11.2104 3.96712
lowerback 19.9484 4.22244 1.2158
upperback 11.7991 5.76567 0.0470393
thorax 1.77005 3.00509 -1.64841
lowerneck 7.32103 -4.72149 -3.27634
upperneck -5.51483 -6.34731 4.42076
head -2.80062 -3.2531 2.30328
rclavicle 5.80451e-014 -1.66979e-014
rhumerus 19.7381 9.26482 -83.5758
rradius 109.987
rwrist 27.4504
rhand 20.2764 -2.60792
rfingers 7.12502
rthumb 44.7925 -26.1888
lclavicle 5.80451e-014 -1.66979e-014
lhumerus 25.0556 -18.1381 76.4878
lradius 129.29
lwrist -11.7155
lhand 11.3879 35.9902
lfingers 7.12502
lthumb 36.4415 62.197
rfemur -30.1642 -6.28691 16.4248
rtibia 46.2534
rfoot -21.5431 -16.9846
rtoes -8.37416
lfemur -31.1816 -3.67275 -21.9923
ltibia 40.6174
lfoot -15.6164 2.71931
ltoes -13.0137
2227
root -0.283355 17.4123 -1.69433 7.83585 11.1048 3.79129
lowerback 19.8694 4.22537 1.27698
upperback 11.6948 5.77599 0.0273397
thorax 1.70356 3.01084 -1.70422
lowerneck 7.25304 -4.6519 -3.23461
upperneck -5.56237 -6.24884 4.40677
head -2.80991 -3.2041 2.28645
rclavicle 6.36111e-015 7.95139e-016
rhumerus 18.5137 9.29934 -83.8961
rradius 110.226
rwrist 27.3746
rhand 20.2575 -2.54966
rfingers 7.12502
rthumb 44.7749 -26.1374
lclavicle 6.36111e-015 7.95139e-016
lhumerus 25.9219 -18.0456 76.1462
lradius 128.821
lwrist -11.6653
lhand 11.4092 35.9477
lfingers 7.12502
lthumb 36.4617 62.1494
rfemur -30.1705 -6.23171 16.651
rtibia 45.6983
rfoot -21.3446 -16.9416
rtoes -8.22472
lfemur -31.2395 -3.81237 -21.7357
ltibia 40.2355
lfoot -15.4852 2.94901
ltoes -12.9854
2228
root -0.285453 17.4356 -1.69736 8.08647 11.0207 3.62184
lowerback 19.7885 4.26944 1.42455
upperback 11.5807 5.85296 -0.0448395
thorax 1.64555 3.05647 -1.87444
lowerneck 7.12886 -4.70006 -2.93093
upperneck -5.62211 -6.28859 4.27104
head -2.8174 -3.22473 2.18643
rclavicle 2.62396e-014 1.19271e-014
rhumerus 17.3181 9.08688 -84.1678
rradius 110.543
rwrist 27.2493
rhand 20.2516 -2.43553
rfingers 7.12502
rthumb 44.7694 -26.0254
lclavicle 2.62396e-014 1.19271e-014
lhumerus 26.8996 -18.1604 75.7362
lradius 128.294
lwrist -11.4511
lhand 11.0693 35.9853
lfingers 7.12502
lthumb 36.1398 62.2673
rfemur -30.2293 -6.1309 16.8577
rtibia 45.1606
rfoot -21.1157 -16.9044
rtoes -7.98484
lfemur -31.3642 -3.94375 -21.4871
ltibia 39.8807
lfoot -15.318 3.11023
ltoes -12.9015
2229
root -0.288533 17.458 -1.70078 8.28398 10.929 3.44257
lowerback 19.7711 4.27965 1.51513
upperback 11.4652 5.87749 -0.0920263
thorax 1.54365 3.07115 -1.98335
lowerneck 6.89847 -4.68109 -2.83725
upperneck -5.41296 -6.25196 4.2892
head -2.70686 -3.20742 2.15839
rclavicle -1.90833e-014 0
rhumerus 16.0972 8.98913 -84.4309
rradius 110.915
rwrist 27.1051
rhand 20.457 -2.16345
rfingers 7.12502
rthumb 44.9605 -25.6785
lclavicle -1.90833e-014 0
lhumerus 27.7695 -18.2055 75.3511
lradius 127.702
lwrist -11.4337
lhand 10.7253 35.9279
lfingers 7.12502
lthumb 35.8139 62.2899
rfemur -30.2462 -6.02674 17.0704
rtibia 44.6492
rfoot -20.9099 -16.8281
rtoes -7.86453
lfemur -31.4565 -4.08397 -21.2297
ltibia 39.5722
lfoot -15.1351 3.3497
ltoes -13.0613
2230
root -0.291344 17.4779 -1.70138 8.40967 10.8 3.284
lowerback 19.7752 4.27088 1.50262
upperback 11.3853 5.86155 -0.106887
thorax 1.45351 3.05971 -1.99434
lowerneck 6.8412 -4.59821 -2.86373
upperneck -5.47111 -6.14594 4.22896
head -2.72105 -3.15167 2.13902
rclavicle 7.15625e-015 -1.43125e-014
rhumerus 14.8991 9.06148 -84.6738
rradius 111.286
rwrist 26.9926
rhand 20.7711 -2.01036
rfingers 7.12502
rthumb 45.2527 -25.4097
lclavicle 7.15625e-015 -1.43125e-014
lhumerus 28.5563 -18.053 74.9933
lradius 127.073
lwrist -11.4638
lhand 10.5547 35.8396
lfingers 7.12502
lthumb 35.6523 62.2408
rfemur -30.1875 -5.9188 17.2604
rtibia 44.1748
rfoot -20.6887 -16.8104
rtoes -8.07935
lfemur -31.4702 -4.21075 -21.0018
ltibia 39.3173
lfoot -15.0346 3.62601
ltoes -13.1742
2231
root -0.294268 17.4951 -1.70133 8.52316 10.7117 3.02488
lowerback 19.7427 4.23416 1.57546
upperback 11.3127 5.8235 -0.0933305
thorax 1.39432 3.04077 -2.01531
lowerneck 6.89699 -4.52193 -2.90902
upperneck -5.65508 -6.04957 4.18553
head -2.79776 -3.10175 2.13733
rclavicle 4.29375e-014 -1.59028e-014
rhumerus 13.7777 9.22175 -84.8508
rradius 111.747
rwrist 26.7801
rhand 21.0493 -2.0755
rfingers 7.12502
rthumb 45.5113 -25.3708
lclavicle 4.29375e-014 -1.59028e-014
lhumerus 29.3133 -17.75 74.6651
lradius 126.404
lwrist -11.4699
lhand 10.3628 35.6222
lfingers 7.12502
lthumb 35.4704 62.0671
rfemur -30.1438 -5.82931 17.5725
rtibia 43.7433
rfoot -20.5326 -16.7907
rtoes -8.06182
lfemur -31.5367 -4.3234 -20.6684
ltibia 39.1344
lfoot -14.9743 3.85168
ltoes -13.3324
